<svg width="21" height="32" viewBox="0 0 21 32" fill="none" xmlns="http://www.w3.org/2000/svg">
<path d="M20.55 7.25C20.55 7.35 20.45 7.4 20.25 7.4C20.0833 7.4 20 7.35 20 7.25C20 5.55 19.55 4.2 18.65 3.2C17.75 2.2 16.5667 1.7 15.1 1.7H11.65C10.4167 1.7 9.5 1.78333 8.9 1.95C8.3 2.11667 7.88333 2.41667 7.65 2.85C7.41667 3.28333 7.3 3.95 7.3 4.85V15.85H12.75C14.45 15.85 15.65 15.6 16.35 15.1C17.05 14.5667 17.4 13.6667 17.4 12.4C17.4 12.3333 17.5 12.3 17.7 12.3C17.9 12.3 18 12.3333 18 12.4L17.95 16.35C17.95 17.3167 17.9667 18.0333 18 18.5L18.05 20.85C18.05 20.9167 17.95 20.95 17.75 20.95C17.55 20.95 17.45 20.9167 17.45 20.85C17.45 19.35 17.0833 18.3 16.35 17.7C15.65 17.1 14.3833 16.8 12.55 16.8H7.3V27.75C7.3 28.8167 7.45 29.6 7.75 30.1C8.05 30.5667 8.61667 30.9 9.45 31.1C10.3167 31.3 11.6833 31.4 13.55 31.4C13.65 31.4 13.7 31.5 13.7 31.7C13.7 31.9 13.65 32 13.55 32C12.1833 32 11.1167 31.9833 10.35 31.95L6 31.9L2.7 31.95C2.1 31.9833 1.26667 32 0.2 32C0.133333 32 0.1 31.9 0.1 31.7C0.1 31.5 0.133333 31.4 0.2 31.4C1.5 31.4 2.45 31.3167 3.05 31.15C3.68333 30.9833 4.1 30.6667 4.3 30.2C4.53333 29.7 4.65 28.95 4.65 27.95V4.8C4.65 3.8 4.53333 3.06667 4.3 2.6C4.1 2.13333 3.68333 1.81666 3.05 1.65C2.45 1.45 1.5 1.35 0.2 1.35C0.133333 1.35 0.1 1.25 0.1 1.05C0.1 0.85 0.133333 0.75 0.2 0.75H20C20.3 0.75 20.45 0.899999 20.45 1.2L20.55 7.25Z" fill="white"/>
</svg>
