<svg width="15" height="15" viewBox="0 0 15 15" fill="none" xmlns="http://www.w3.org/2000/svg">
<path d="M7.76642 0.130114C6.4869 0.12974 5.23064 0.472165 4.12829 1.12178C3.02594 1.77139 2.11775 2.70447 1.49817 3.82398C0.878594 4.94349 0.570253 6.20854 0.605213 7.48759C0.640174 8.76663 1.01716 10.013 1.69697 11.0969L1.86734 11.3676L1.14355 14.009L3.85384 13.2985L4.11484 13.4532C5.21816 14.1066 6.47688 14.4514 7.75917 14.4513H7.7628C9.66206 14.4516 11.4837 13.6974 12.8269 12.3547C14.1701 11.0119 14.9249 9.19057 14.9252 7.2913C14.9255 5.39204 14.1713 3.57043 12.8286 2.22722C11.4858 0.884014 9.66448 0.129227 7.76522 0.128906L7.76642 0.130114ZM11.9763 10.3647C11.8179 10.6263 11.6071 10.8522 11.3571 11.0284C11.1072 11.2045 10.8234 11.327 10.5238 11.3882C10.0715 11.4657 9.60729 11.4368 9.16809 11.3036C8.75157 11.1738 8.34219 11.0221 7.94163 10.8492C6.45505 10.1032 5.18796 8.98352 4.26467 7.60003C3.76101 6.95958 3.45528 6.18602 3.38501 5.37428C3.3792 5.03923 3.44325 4.70664 3.57307 4.3977C3.70288 4.08876 3.89562 3.81025 4.13901 3.57991C4.21094 3.49785 4.29905 3.43156 4.39782 3.38519C4.4966 3.33882 4.60389 3.31337 4.71297 3.31045C4.85555 3.31045 4.99934 3.31045 5.12501 3.3177C5.25792 3.32374 5.43434 3.26695 5.60834 3.68745C5.78959 4.11762 6.21976 5.17732 6.27292 5.28486C6.30705 5.34124 6.32658 5.40524 6.32975 5.47107C6.33291 5.5369 6.31961 5.60247 6.29105 5.66187C6.23684 5.79114 6.16441 5.91199 6.07597 6.02074C5.96722 6.14641 5.85001 6.30107 5.75334 6.39774C5.64459 6.50528 5.53342 6.62128 5.65788 6.83637C5.98114 7.38985 6.38468 7.89234 6.85534 8.32745C7.36602 8.78148 7.95198 9.14295 8.58688 9.39562C8.80197 9.50437 8.92763 9.48503 9.0533 9.34124C9.17897 9.19745 9.59101 8.71291 9.7348 8.49782C9.87859 8.28274 10.0212 8.31899 10.2181 8.39028C10.4151 8.46157 11.4748 8.98237 11.6899 9.09112C11.905 9.19987 12.0488 9.25182 12.1019 9.34124C12.1609 9.68735 12.1172 10.0431 11.9763 10.3647Z" fill="#43FFD2"/>
</svg>
